@startuml
package [..] as C_0016431317663134048372 {
package [src] as C_0010634688166860467214 {
package [models] as C_0001626712604113445200 {
abstract "::IJsonSerializable" as C_0017605762593928520665
abstract C_0017605762593928520665 {
+~IJsonSerializable() = default : void
..
{abstract} +toJson() const = 0 : QJsonObject
__
}
enum "::ItemType" as C_0009506588567340924694
enum C_0009506588567340924694 {
WEAPON
ARMOR
ACCESSORY
RANDOM
}
abstract "::Item" as C_0005967165952864249862
abstract C_0005967165952864249862 {
+Item() : void
+Item(std::string_view name, std::string_view desc, int default_price, int add_price = 0) : void
+~Item() = default : void
..
+addToPrice(int add) : void
+getDesc() const : const std::string &
{abstract} +getItemType() const = 0 : ItemType
+getName() const : const std::string &
+getPrice() const : int
+getPriceModified() const : int
+getQualityPrice() const : int
+setDefaultDesc() : void
+setDefaultPrice() : void
+setDesc(std::string_view d) : void
+setName(std::string_view n) : void
+setQualityPrice(int q_price) : void
+toJson() const : QJsonObject
__
#_default_price : const int
#_desc : std::string
#_name : std::string
#_price : int
#_quality_price : int
}
enum "::Attribute" as C_0013522169845410927695
enum C_0013522169845410927695 {
WLP
INS
DEX
MIG
NONE
}
enum "::DMGType" as C_0009351376410296248543
enum C_0009351376410296248543 {
PHYSICAL
AIR
BOLT
DARK
EARTH
FIRE
ICE
LIGHT
POISON
NONE
}
enum "::WeaponType" as C_0008393046724430625929
enum C_0008393046724430625929 {
ARCANE
BOW
BRAWL
DAGGER
FIREARM
FLAIL
HEAVY
SPEAR
SWORD
THROWN
NONE
}
class "::Weapon" as C_0009880302970961535201
class C_0009880302970961535201 {
+Weapon() : void
+Weapon(std::string_view name, std::string_view desc, int default_price, int price, WeaponType weapon_type, int dmg_desc, DMGType dmg_type, Attribute accuracy1, Attribute accuracy2, int accuracy_bonus, bool isSingleHanded, bool isRange, bool isMartial) : void
..
+getAccuracy1() const : Attribute
+getAccuracy2() const : Attribute
+getAccuracyBonus() const : int
+getDmgDesc() const : int
+getDmgType() const : DMGType
+getIsMartial() const : bool
+getIsRange() const : bool
+getIsSingleHanded() const : bool
+getItemType() const : ItemType
+getWeaponType() const : WeaponType
+setAccuracy1(Attribute a1) : void
+setAccuracy2(Attribute a2) : void
+setAccuracyBonus(int ab) : void
+setDmgDesc(int dd) : void
+setDmgType(DMGType dt) : void
+setIsMartial(bool im) : void
+setIsRange(bool ir) : void
+setIsSingleHanded(bool ish) : void
+setType(WeaponType t) : void
+toJson() const : QJsonObject
__
-_accuracy1 : Attribute
-_accuracy2 : Attribute
-_accuracy_bonus : int
-_dmg_desc : int
-_dmg_type : DMGType
-_isMartial : bool
-_isRange : bool
-_isSingleHanded : bool
-_weapon_type : WeaponType
}
class "::Player" as C_0003692324345213718176
class C_0003692324345213718176 {
+Player() : void
+Player(std::string_view character_name, std::string_view author_name, int level, Attribute p_die1, Attribute p_die2, WeaponType pref_weapon, bool canMartialWeapon, bool canMartialArmor, bool canRange, bool canShield) : void
..
+getAuthorName() const : const std::string &
+getCanMartialArmor() const : bool
+getCanMartialWeapon() const : bool
+getCanRange() const : bool
+getCanShield() const : bool
+getCharacterName() const : const std::string &
+getLevel() const : int
+getPreferredWeaponType() const : WeaponType
+getPrimaryDie1() const : Attribute
+getPrimaryDie2() const : Attribute
+setAuthorName(std::string_view author_name) : void
+setCanMartialArmor(bool canMartialArmor) : void
+setCanMartialWeapon(bool canMartialWeapon) : void
+setCanRange(bool canRange) : void
+setCanShield(bool canShield) : void
+setCharacterName(std::string_view ch_name) : void
+setLevel(int level) : void
+setPreferredWeaponType(WeaponType pref_weapon) : void
+setPrimaryDie1(Attribute p_die1) : void
+setPrimaryDie2(Attribute p_die2) : void
+toJson() const : QJsonObject
__
-_author_name : std::string
-_canMartialArmor : bool
-_canMartialWeapon : bool
-_canRange : bool
-_canShield : bool
-_character_name : std::string
-_level : int
-_preferred_weapon_type : WeaponType
-_primary_die1 : Attribute
-_primary_die2 : Attribute
}
class "::Quality" as C_0017759373907162862278
class C_0017759373907162862278 {
+Quality() : void
+Quality(const std::string_view _desc, const int _cost_add, const bool _isOffensive) : void
__
+cost_add : int
+desc : std::string
+isOffensive : bool
}
class "::Accessory" as C_0001733752998306711321
class C_0001733752998306711321 {
+Accessory() = default : void
+Accessory(std::string_view name, std::string_view desc, int default_price, int price) : void
..
+getItemType() const : ItemType
+toJson() const : QJsonObject
__
}
class "::Armor" as C_0017091837617986840564
class C_0017091837617986840564 {
+Armor() : void
+Armor(std::string_view name, std::string_view desc, int default_price, int price, int initiative, bool isMartial, Attribute magic_defense, int magic_defense_bonus, Attribute defense, int defense_bonus, bool isShield) : void
..
+getDefAtr() const : Attribute
+getDefBonus() const : int
+getInitiative() const : int
+getIsMartial() const : bool
+getIsShield() const : bool
+getItemType() const : ItemType
+getMagDefAtr() const : Attribute
+getMagDefBonus() const : int
+setDef(int d) : void
+setInitiative(int in) : void
+setIsMartial(bool m) : void
+setIsShield(bool s) : void
+setMagDef(int md) : void
+toJson() const : QJsonObject
__
-_defense : Attribute
-_defense_bonus : int
-_initiative : int
-_isMartial : bool
-_isShield : bool
-_magic_defense : Attribute
-_magic_defense_bonus : int
}
}
package [core] as C_0009398224592071360425 {
class "::CampaignManager" as C_0006935415749788347394
class C_0006935415749788347394 {
+CampaignManager() = default : void
..
+addItem(std::unique_ptr<Item> item) : void
+addPlayer(std::unique_ptr<Player> player) : void
+clear() : void
+deleteAllItems() : void
+deleteAllPlayers() : void
+deleteItem(size_t idx) : void
+deletePlayer(size_t idx) : void
+getItem(size_t idx) const : Item &
+getItems() const : const std::vector<std::unique_ptr<Item>> &
+getPlayer(size_t idx) const : Player &
+getPlayers() const : const std::vector<std::unique_ptr<Player>> &
+getRandomPlayer() const : const Player &
+replaceItem(size_t idx, std::unique_ptr<Item> item) : void
+replacePlayer(size_t idx, std::unique_ptr<Player> player) : void
__
-_items : std::vector<std::unique_ptr<Item>>
-_players : std::vector<std::unique_ptr<Player>>
}
}
package [systems] as C_0016692703261607978348 {
abstract "::GeneratorStrategy" as C_0003391557478520177739
abstract C_0003391557478520177739 {
+~GeneratorStrategy() = default : void
..
{abstract} +generate(const Player & player) = 0 : std::unique_ptr<Item>
__
}
class "::QualityGenerator" as C_0017722926631985697211
class C_0017722926631985697211 {
+QualityGenerator(const QString & file_path) : void
..
+applyRandomQualityTo(Item * item) : void
+generate() : const Quality &
__
-_cache_qualities : std::vector<Quality>
}
class "::ItemGeneratorSystem" as C_0003751086353887321154
class C_0003751086353887321154 {
+ItemGeneratorSystem() : void
..
+assignQuality(ItemType type, Item * item) : void
+generateItem(ItemType type, const Player & player) : std::unique_ptr<Item>
{static} -getRandomItemType() : ItemType
{static} -isItemPriceValid(const Item & item, const Player & player) : bool
__
-quality_gen : std::map<ItemType,std::unique_ptr<QualityGenerator>>
-strategies : std::map<ItemType,std::unique_ptr<GeneratorStrategy>>
}
class "::AccessoryGenerator" as C_0004788119760935680862
class C_0004788119760935680862 {
+AccessoryGenerator() = default : void
..
+generate(const Player & player) : std::unique_ptr<Item>
__
}
class "::ArmorGenerator" as C_0005567866987455504025
class C_0005567866987455504025 {
+ArmorGenerator(const QString & file_path) : void
..
+generate(const Player & player) : std::unique_ptr<Item>
{static} -isArmorUsable(const Player & player, const Armor & armor) : bool
__
-_cache_armors : std::vector<std::unique_ptr<Armor>>
}
class "::WeaponGenerator" as C_0004150406585329947926
class C_0004150406585329947926 {
+WeaponGenerator(const QString & file_path) : void
..
-filterByPlayerAttributesHard(const Player & player) const : std::vector<const Weapon *>
-filterByPlayerAttributesSoft(const Player & player) const : std::vector<const Weapon *>
-filterByPlayerPreference(const Player & player) const : std::vector<const Weapon *>
+generate(const Player & player) : std::unique_ptr<Item>
{static} -isWeaponUsable(const Player & player, const Weapon & weapon) : bool
__
-_cache_weapons : std::vector<std::unique_ptr<Weapon>>
}
}
package [controllers] as C_0012248337201340293231 {
class "::AppController" as C_0007310296898495958844
class C_0007310296898495958844 {
+clearRepository() : void
{static} +deleteCampaign(const QString & file_path) : bool
+editItem(size_t idx, std::unique_ptr<Item> edited_item) : void
+editPlayer(size_t idx, std::unique_ptr<Player> edited_player) : void
+generateItem(ItemType type, const Player & player) : std::unique_ptr<Item>
+generateItemForRandomPlayer() : std::unique_ptr<Item>
+generateRandomItem(const Player & player) : std::unique_ptr<Item>
+getItemsRepository() const : const std::vector<std::unique_ptr<Item>> &
+getPlayersRepository() const : const std::vector<std::unique_ptr<Player>> &
+loadCampaign(const QString & file_path) : bool
+removeItem(size_t idx) : void
+removePlayer(size_t idx) : void
+rerollQuality(Item * item) : void
+saveCampaign(const QString & file_path) const : bool
+saveItem(std::unique_ptr<Item> item) : void
+savePlayer(std::unique_ptr<Player> player) : void
__
-generator : ItemGeneratorSystem
-repository : CampaignManager
}
}
package [converters] as C_0000711852358221677647 {
class "::ItemTypeConverter" as C_0010981789038846393830
class C_0010981789038846393830 {
{static} +toQString(const ItemType it) : QString
{static} +toString(const ItemType it) : std::string
__
}
class "::AttributeConverter" as C_0005072435100688997565
class C_0005072435100688997565 {
{static} +toQString(const Attribute attr) : QString
{static} +toString(const Attribute attr) : std::string
__
}
class "::WeaponTypeConverter" as C_0009334346552331698971
class C_0009334346552331698971 {
{static} +toQString(const WeaponType wt) : QString
{static} +toString(const WeaponType wt) : std::string
__
}
}
package [io] as C_0016395333381226012294 {
class "::CampaignSerializer" as C_0004718098425785505463
class C_0004718098425785505463 {
{static} -itemFromJson(QJsonObject json_item) : std::unique_ptr<Item>
{static} +load(CampaignManager & mng, const QString & file_path) : bool
{static} -playerFromJson(QJsonObject json_player) : std::unique_ptr<Player>
{static} +save(const CampaignManager & mng, const QString & file_path) : bool
__
}
class "::JsonReader" as C_0002948440278719519756
class C_0002948440278719519756 {
{static} +loadItems(const QString & file_path, ItemType type) : std::vector<std::unique_ptr<Item>>
{static} +loadQualities(const QString & file_path) : std::vector<Quality>
{static} -parseArmor(const QJsonObject & JsonArmorObj, bool makeShield) : std::unique_ptr<Armor>
{static} -parseQuality(const QJsonObject & JsonQualityObj, bool makeOffensive) : Quality
{static} -parseWeapon(const QJsonObject & JsonWeaponObj) : std::unique_ptr<Weapon>
__
}
}
package [tests] as C_0009102687024667839383 {
class "::Test" as C_0002626979548338364165
class C_0002626979548338364165 {
+allArmorTests() : void
+allCostTests() : void
+allIGSTests() : void
+allWeaponTests() : void
-checkAttributes(const Weapon & w, const Player & p) : void
-checkCost(const Item & i) : void
-checkCostToLevel(const Item & i, const Player & p) : void
-checkMartial(const Weapon & w, const Player & p) : void
-checkMartial(const Armor & a) : void
-checkMartial(const Armor & a, const Player & p) : void
-checkPreference(const Weapon & w, const Player & p) : void
-checkRange(const Weapon & w, const Player & p) : void
-checkShield(const Armor & a, const Player & p) : void
-readArmor(const Armor & a) : void
-readWeapon(const Weapon & GenWeapon) : void
+testArmorPreferences() : void
+testArmorRandom() : void
+testIGSRandom() : void
+testIGSSpecific() : void
+testLegalArmorQuality() : void
+testWeaponAttributePreference() : void
+testWeaponFullPreferences() : void
+testWeaponRandom() : void
+testWeaponTypePreference() : void
__
-_ag : std::unique_ptr<ArmorGenerator>
-_igs : ItemGeneratorSystem
-_qg : std::unique_ptr<QualityGenerator>
-_wg : std::unique_ptr<WeaponGenerator>
-attributes : std::string[4]
-dmg_type : std::string[9]
-weapon_type : std::string[10]
}
}
}
package [gui] as C_0004695295680056233043 {
package [models] as C_0006018854047243949875 {
class "::MyItemTableModel" as C_0014262518239461510613
class C_0014262518239461510613 {
+MyItemTableModel(const std::vector<std::unique_ptr<Item>> * _container, QObject * parent = nullptr) : void
..
+columnCount(const QModelIndex & parent = QModelIndex()) const : int
+data(const QModelIndex & index, int role = Qt::DisplayRole) const : QVariant
+headerData(int section, Qt::Orientation orientation, int role = Qt::DisplayRole) const : QVariant
+refresh() : void
+rowCount(const QModelIndex & parent = QModelIndex()) const : int
__
-container : const std::vector<std::unique_ptr<Item>> *
}
class "::MyPlayerTableModel" as C_0011863623600894958275
class C_0011863623600894958275 {
+MyPlayerTableModel(const std::vector<std::unique_ptr<Player>> * _container, QObject * parent = nullptr) : void
..
+columnCount(const QModelIndex & parent = QModelIndex()) const : int
+data(const QModelIndex & index, int role = Qt::DisplayRole) const : QVariant
+headerData(int section, Qt::Orientation orientation, int role = Qt::DisplayRole) const : QVariant
+refresh() : void
+rowCount(const QModelIndex & parent = QModelIndex()) const : int
__
-container : const std::vector<std::unique_ptr<Player>> *
}
}
package [dialogue] as C_0015634168960119022395 {
package [addplayer] as C_0007726450299472464201 {
class "::QList<Player>" as C_0003457409188383302457
class C_0003457409188383302457 {
__
}
class "AddPlayerDialogue" as C_0009217203060302378661
class C_0009217203060302378661 {
__
}
class "::AddPlayerDialogue" as C_0003418249452023553575
class C_0003418249452023553575 {
+AddPlayerDialogue(QWidget * parent = nullptr) : void
+~AddPlayerDialogue() : void
..
+accept() : void
-clearForm() const : void
+getPlayers() const : QList<Player>
+metaObject() const : const QMetaObject *
-on_BttnNextPlayer_clicked() : void
+qt_metacall(QMetaObject::Call, int, void **) : int
+qt_metacast(const char *) : void *
{static} -qt_static_metacall(QObject *, QMetaObject::Call, int, void **) : void
{static} +tr(const char * s, const char * c = nullptr, int n = -1) : QString
-validateAndSet(Player * p) : bool
__
-playerList : QList<Player>
{static} +staticMetaObject : const QMetaObject
-ui : Ui::AddPlayerDialogue *
}
}
package [itemgen] as C_0002134151849342098628 {
class "ItemGenDialogue" as C_0009426838645252622292
class C_0009426838645252622292 {
__
}
class "::ItemGenDialogue" as C_0000978053374665887298
class C_0000978053374665887298 {
+ItemGenDialogue(AppController * apc, QWidget * parent = nullptr) : void
+~ItemGenDialogue() : void
..
+metaObject() const : const QMetaObject *
-on_BttnQuickGenerate_clicked() : void
-on_BttnRerollQualityWeap_clicked() : void
-on_bttnGenerateAccessory_clicked() : void
-on_bttnGenerateArmor_clicked() : void
-on_bttnGenerateWeapon_clicked() : void
-on_bttnRerollQualityAcc_clicked() : void
-on_bttnRerollQualityArm_clicked() : void
-on_buttonBox_accepted() : void
-on_comboBoxChoosePlayer_currentIndexChanged(int index) : void
-on_comboBoxDmgType_currentIndexChanged(int index) : void
-on_lineEditAccName_editingFinished() : void
-on_lineEditNameArmor_editingFinished() : void
-on_lineEditWName_editingFinished() : void
+qt_metacall(QMetaObject::Call, int, void **) : int
+qt_metacast(const char *) : void *
{static} -qt_static_metacall(QObject *, QMetaObject::Call, int, void **) : void
-rerollQuality() const : void
-saveName() const : void
-setLVItemDependent() const : void
{static} -setLayoutVisible(bool visible, QLayout * l) : void
{static} +tr(const char * s, const char * c = nullptr, int n = -1) : QString
__
-_apc : AppController *
-_generatedItem : std::unique_ptr<Item>
{static} +staticMetaObject : const QMetaObject
-ui : Ui::ItemGenDialogue *
}
}
package [editplayer] as C_0016614504662094967228 {
class "EditPlayerDialogue" as C_0002017940152814686900
class C_0002017940152814686900 {
__
}
class "::EditPlayerDialogue" as C_0005297008815040168682
class C_0005297008815040168682 {
+EditPlayerDialogue(const std::vector<std::unique_ptr<Player>> & players, QWidget * parent = nullptr) : void
+~EditPlayerDialogue() : void
..
+getIndex() : int
+getPlayer() : Player
+metaObject() const : const QMetaObject *
-on_BttnDelPlayer_clicked() : void
-on_ComboBoxSelectPlayer_currentIndexChanged(int index) : void
+qt_metacall(QMetaObject::Call, int, void **) : int
+qt_metacast(const char *) : void *
{static} -qt_static_metacall(QObject *, QMetaObject::Call, int, void **) : void
-refreshPlayerList() : void
+removePlayerRequest(int index) : void
{static} +tr(const char * s, const char * c = nullptr, int n = -1) : QString
__
-players : const std::vector<std::unique_ptr<Player>> &
{static} +staticMetaObject : const QMetaObject
-ui : Ui::EditPlayerDialogue *
}
}
}
class "::Ui_MainWindow" as C_0008416453855301937033
class C_0008416453855301937033 {
+retranslateUi(QMainWindow * MainWindow) : void
+setupUi(QMainWindow * MainWindow) : void
__
+centralwidget : QWidget *
+menubar : QMenuBar *
+statusbar : QStatusBar *
}
class "MainWindow" as C_0005461363864585996070
class C_0005461363864585996070 {
__
}
class "::MainWindow" as C_0002900986228388971956
class C_0002900986228388971956 {
+MainWindow(QWidget * parent = nullptr) : void
+~MainWindow() : void
..
+metaObject() const : const QMetaObject *
-on_BttnAddPlayers_clicked() : void
-on_BttnEditPlayers_clicked() : void
-on_BttnLoadCampain_clicked() : void
-on_BttnNewCampain_clicked() : void
-on_BttnNormalGenerate_clicked() : void
-on_BttnQuickGenerate_clicked() : void
-on_BttnSaveCampain_clicked() : void
-on_TableGeneratedItems_doubleClicked(const QModelIndex & index) : void
-on_removePlayer(int index) : void
+qt_metacall(QMetaObject::Call, int, void **) : int
+qt_metacast(const char *) : void *
{static} -qt_static_metacall(QObject *, QMetaObject::Call, int, void **) : void
{static} +tr(const char * s, const char * c = nullptr, int n = -1) : QString
-updateUIState() const : void
__
-_appcontrol : AppController
-_item_model : MyItemTableModel *
-_loadedFile : QString
-_player_model : MyPlayerTableModel *
{static} +staticMetaObject : const QMetaObject
-ui : Ui::MainWindow *
}
}
package [..] as C_0014171261687204616676 {
package [..] as C_0005643450359404850452 {
package [..] as C_0007205590463529964868 {
package [..] as C_0005849845958562319668 {
package [..] as C_0001662950104636937124 {
package [Qt] as C_0010702282364967397213 {
package [6.8.0] as C_0012626195919979296151 {
package [mingw_64] as C_0015693061597172910648 {
package [include] as C_0018124199592555195040 {
package [QtCore] as C_0002166560000924496074 {
class "::AddPlayerDialogue::QPrivateSignal" as C_0002832729774054805495
class C_0002832729774054805495 {
+QPrivateSignal() constexpr = default : void
__
}
class "::ItemGenDialogue::QPrivateSignal" as C_0011420989964917874998
class C_0011420989964917874998 {
+QPrivateSignal() constexpr = default : void
__
}
class "::EditPlayerDialogue::QPrivateSignal" as C_0000833824470742729566
class C_0000833824470742729566 {
+QPrivateSignal() constexpr = default : void
__
}
class "::MainWindow::QPrivateSignal" as C_0013559316693802428772
class C_0013559316693802428772 {
+QPrivateSignal() constexpr = default : void
__
}
}
}
}
}
}
}
}
}
}
}
}
C_0005967165952864249862 ..> C_0009506588567340924694
C_0017605762593928520665 <|-- C_0005967165952864249862
C_0009880302970961535201 ..> C_0009506588567340924694
C_0009880302970961535201 o-- C_0008393046724430625929 : -_weapon_type
C_0009880302970961535201 o-- C_0009351376410296248543 : -_dmg_type
C_0009880302970961535201 o-- C_0013522169845410927695 : -_accuracy1
C_0009880302970961535201 o-- C_0013522169845410927695 : -_accuracy2
C_0005967165952864249862 <|-- C_0009880302970961535201
C_0003692324345213718176 o-- C_0013522169845410927695 : -_primary_die1
C_0003692324345213718176 o-- C_0013522169845410927695 : -_primary_die2
C_0003692324345213718176 o-- C_0008393046724430625929 : -_preferred_weapon_type
C_0017605762593928520665 <|-- C_0003692324345213718176
C_0001733752998306711321 ..> C_0009506588567340924694
C_0005967165952864249862 <|-- C_0001733752998306711321
C_0017091837617986840564 ..> C_0009506588567340924694
C_0017091837617986840564 o-- C_0013522169845410927695 : -_magic_defense
C_0017091837617986840564 o-- C_0013522169845410927695 : -_defense
C_0005967165952864249862 <|-- C_0017091837617986840564
C_0006935415749788347394 o-- C_0005967165952864249862 : -_items
C_0006935415749788347394 o-- C_0003692324345213718176 : -_players
C_0003391557478520177739 ..> C_0003692324345213718176
C_0003391557478520177739 ..> C_0005967165952864249862
C_0017722926631985697211 ..> C_0005967165952864249862
C_0017722926631985697211 o-- C_0017759373907162862278 : -_cache_qualities
C_0003751086353887321154 ..> C_0005967165952864249862
C_0003751086353887321154 ..> C_0003692324345213718176
C_0003751086353887321154 o-- C_0009506588567340924694 : -strategies
C_0003751086353887321154 o-- C_0003391557478520177739 : -strategies
C_0003751086353887321154 o-- C_0009506588567340924694 : -quality_gen
C_0003751086353887321154 o-- C_0017722926631985697211 : -quality_gen
C_0004788119760935680862 ..> C_0003692324345213718176
C_0004788119760935680862 ..> C_0005967165952864249862
C_0003391557478520177739 <|-- C_0004788119760935680862
C_0005567866987455504025 ..> C_0003692324345213718176
C_0005567866987455504025 ..> C_0005967165952864249862
C_0005567866987455504025 o-- C_0017091837617986840564 : -_cache_armors
C_0003391557478520177739 <|-- C_0005567866987455504025
C_0004150406585329947926 ..> C_0003692324345213718176
C_0004150406585329947926 ..> C_0005967165952864249862
C_0004150406585329947926 o-- C_0009880302970961535201 : -_cache_weapons
C_0003391557478520177739 <|-- C_0004150406585329947926
C_0007310296898495958844 ..> C_0003692324345213718176
C_0007310296898495958844 ..> C_0005967165952864249862
C_0007310296898495958844 ..> C_0009506588567340924694
C_0007310296898495958844 o-- C_0006935415749788347394 : -repository
C_0007310296898495958844 o-- C_0003751086353887321154 : -generator
C_0010981789038846393830 ..> C_0009506588567340924694
C_0005072435100688997565 ..> C_0013522169845410927695
C_0009334346552331698971 ..> C_0008393046724430625929
C_0004718098425785505463 ..> C_0003692324345213718176
C_0004718098425785505463 ..> C_0005967165952864249862
C_0004718098425785505463 ..> C_0006935415749788347394
C_0002948440278719519756 ..> C_0009880302970961535201
C_0002948440278719519756 ..> C_0017091837617986840564
C_0002948440278719519756 ..> C_0017759373907162862278
C_0002948440278719519756 ..> C_0009506588567340924694
C_0002948440278719519756 ..> C_0005967165952864249862
C_0002626979548338364165 ..> C_0009880302970961535201
C_0002626979548338364165 ..> C_0003692324345213718176
C_0002626979548338364165 ..> C_0005967165952864249862
C_0002626979548338364165 ..> C_0017091837617986840564
C_0002626979548338364165 o-- C_0003751086353887321154 : -_igs
C_0002626979548338364165 o-- C_0004150406585329947926 : -_wg
C_0002626979548338364165 o-- C_0005567866987455504025 : -_ag
C_0002626979548338364165 o-- C_0017722926631985697211 : -_qg
C_0014262518239461510613 --> C_0005967165952864249862 : -container
C_0011863623600894958275 --> C_0003692324345213718176 : -container
C_0003457409188383302457 ..> C_0003692324345213718176
C_0003418249452023553575 ..> C_0003692324345213718176
C_0003418249452023553575 --> C_0009217203060302378661 : -ui
C_0003418249452023553575 o-- C_0003457409188383302457 : -playerList
C_0000978053374665887298 --> C_0009426838645252622292 : -ui
C_0000978053374665887298 --> C_0007310296898495958844 : -_apc
C_0000978053374665887298 o-- C_0005967165952864249862 : -_generatedItem
C_0005297008815040168682 --> C_0002017940152814686900 : -ui
C_0005297008815040168682 --> C_0003692324345213718176 : -players
C_0008416453855301937033 <|-- C_0005461363864585996070
C_0002900986228388971956 --> C_0005461363864585996070 : -ui
C_0002900986228388971956 o-- C_0007310296898495958844 : -_appcontrol
C_0002900986228388971956 --> C_0014262518239461510613 : -_item_model
C_0002900986228388971956 --> C_0011863623600894958275 : -_player_model
C_0002832729774054805495 --+ C_0003418249452023553575
C_0011420989964917874998 --+ C_0000978053374665887298
C_0000833824470742729566 --+ C_0005297008815040168682
C_0013559316693802428772 --+ C_0002900986228388971956

'Generated with clang-uml, version 0.6.2
'LLVM version clang version 20.1.7 (https://github.com/llvm/llvm-project.git 6146a88f60492b520a36f8f8f3231e15f3cc6082)
@enduml
